<svg width="80" height="80" viewBox="0 0 80 80" fill="none" xmlns="http://www.w3.org/2000/svg">
<g clip-path="url(#clip0)">
<path d="M78.7469 37.6353C78.6663 37.5812 78.5831 37.5313 78.4972 37.4858L72.8201 34.4287L41.3372 51.0973C40.5008 51.5403 39.4994 51.5403 38.663 51.0973L7.18028 34.4287L1.50306 37.4858C0.123258 38.2182 -0.401742 39.9305 0.330679 41.3103C0.376215 41.396 0.426103 41.4794 0.480177 41.5601L40.0001 62.4829L79.5201 41.5601C80.3904 40.2628 80.0444 38.5057 78.7469 37.6353Z" fill="white" fill-opacity="0.6"/>
<path d="M79.6545 55.7855C79.3898 55.2952 78.9875 54.8929 78.4973 54.6284L72.8203 51.5713L41.3374 68.2399C40.501 68.6828 39.4995 68.6828 38.6632 68.2399L7.18026 51.5713L1.50303 54.6284C0.114357 55.3779 -0.403612 57.1111 0.345886 58.4997C0.610562 58.9901 1.01285 59.3924 1.50303 59.6569L38.6459 79.6569C39.4913 80.1121 40.509 80.1121 41.3545 79.6569L78.4973 59.6569C79.8858 58.9074 80.404 57.1742 79.6545 55.7855Z" fill="white" fill-opacity="0.6"/>
<path d="M78.7469 20.4929C78.6663 20.4388 78.5831 20.3889 78.4972 20.3434L41.3545 0.343345C40.509 -0.111844 39.4914 -0.111844 38.6459 0.343345L1.50306 20.3434C0.123258 21.0758 -0.401742 22.7881 0.330679 24.1679C0.376215 24.2536 0.426103 24.337 0.480177 24.4177L40.0001 45.3405L79.5201 24.4177C80.3904 23.1204 80.0444 21.3633 78.7469 20.4929Z" fill="white" fill-opacity="0.6"/>
</g>
<defs>
<clipPath id="clip0">
<rect width="80" height="80" fill="white"/>
</clipPath>
</defs>
</svg>
