<svg width="31" height="31" viewBox="0 0 31 31" fill="none" xmlns="http://www.w3.org/2000/svg">
<path d="M27.125 5.8125H3.875C3.36114 5.8125 2.86833 6.01663 2.50498 6.37998C2.14163 6.74333 1.9375 7.23614 1.9375 7.75V23.25C1.9375 23.7639 2.14163 24.2567 2.50498 24.62C2.86833 24.9834 3.36114 25.1875 3.875 25.1875H27.125C27.6389 25.1875 28.1317 24.9834 28.495 24.62C28.8584 24.2567 29.0625 23.7639 29.0625 23.25V7.75C29.0625 7.23614 28.8584 6.74333 28.495 6.37998C28.1317 6.01663 27.6389 5.8125 27.125 5.8125ZM24.9937 7.75L15.5 14.3181L6.00625 7.75H24.9937ZM3.875 23.25V8.63156L14.9478 16.2944C15.11 16.4069 15.3026 16.4672 15.5 16.4672C15.6974 16.4672 15.89 16.4069 16.0522 16.2944L27.125 8.63156V23.25H3.875Z" fill="#999999"/>
</svg>
