<svg width="80" height="80" viewBox="0 0 80 80" fill="none" xmlns="http://www.w3.org/2000/svg">
<g clip-path="url(#clip0)">
<path d="M62.5 0C52.85 0 45 7.85 45 17.5C45 26.48 59.04 42.385 60.64 44.17C61.115 44.695 61.79 45 62.5 45C63.21 45 63.885 44.695 64.36 44.17C65.96 42.385 80 26.48 80 17.5C80 7.85 72.15 0 62.5 0ZM62.5 25C58.36 25 55 21.64 55 17.5C55 13.36 58.36 10 62.5 10C66.64 10 70 13.36 70 17.5C70 21.64 66.64 25 62.5 25Z" fill="white" fill-opacity="0.6"/>
<path d="M1.57 29.37C0.625 29.75 0 30.67 0 31.695V77.5C0 78.33 0.415 79.105 1.1 79.57C1.52 79.85 2.005 80 2.5 80C2.815 80 3.13 79.94 3.43 79.82L25 71.19V20L1.57 29.37Z" fill="white" fill-opacity="0.6"/>
<path d="M68.08 47.5097C66.66 49.0897 64.625 49.9997 62.5 49.9997C60.375 49.9997 58.34 49.0897 56.92 47.5097C56.41 46.9447 55.755 46.1997 55 45.3147V79.9997L78.43 70.6297C79.38 70.2547 80 69.3297 80 68.3097V31.5547C75.905 38.4897 70.43 44.8897 68.08 47.5097Z" fill="white" fill-opacity="0.6"/>
<path d="M41.575 24.63L30 20V71.19L50 79.19V39.04C46.805 34.735 43.47 29.55 41.575 24.63Z" fill="white" fill-opacity="0.6"/>
</g>
<defs>
<clipPath id="clip0">
<rect width="80" height="80" fill="white"/>
</clipPath>
</defs>
</svg>
