<svg width="80" height="80" viewBox="0 0 80 80" fill="none" xmlns="http://www.w3.org/2000/svg">
<path d="M40 44.6875C41.2944 44.6875 42.3438 43.6382 42.3438 42.3438C42.3438 41.0493 41.2944 40 40 40C38.7056 40 37.6562 41.0493 37.6562 42.3438C37.6562 43.6382 38.7056 44.6875 40 44.6875Z" fill="white" fill-opacity="0.6"/>
<path d="M40 0C17.9753 0 0 17.9764 0 40C0 62.0252 17.9764 80 40 80C62.025 80 80 62.0236 80 40C80 17.9753 62.0236 0 40 0ZM40 9.53125C55.2067 9.53125 67.8467 20.7294 70.1081 35.3125H61.9802C56.8267 35.3125 51.9305 33.2445 48.5469 29.6389C43.9219 24.7098 36.0786 24.7083 31.4531 29.6388C28.0695 33.2445 23.1733 35.3125 18.0197 35.3125H9.89187C12.1533 20.7294 24.7933 9.53125 40 9.53125ZM40 49.375C36.1231 49.375 32.9688 46.2209 32.9688 42.3438C32.9688 38.4666 36.1231 35.3125 40 35.3125C43.8772 35.3125 47.0312 38.4666 47.0312 42.3438C47.0312 46.2209 43.8772 49.375 40 49.375ZM11.6281 51.1089C14.3109 50.0564 16.2481 49.375 18.9062 49.375C27.4513 49.375 34.0967 56.9897 32.8095 65.5453H32.8041C32.6128 66.8548 32.2366 68.1237 31.6939 69.318C22.5128 66.7133 15.083 59.902 11.6281 51.1089ZM48.308 69.3173C47.7505 68.0916 47.3823 66.8228 47.1959 65.5453H47.1905C45.6906 55.5758 54.8937 47.3497 64.4333 49.7741C65.4389 50.0297 66.6973 50.4522 68.3717 51.1091C64.9172 59.9014 57.4881 66.7123 48.308 69.3173Z" fill="white" fill-opacity="0.6"/>
</svg>
