<svg width="57" height="57" viewBox="0 0 57 57" fill="none" xmlns="http://www.w3.org/2000/svg">
<g clip-path="url(#clip0)">
<path d="M38.9402 23.2152C38.9562 23.4322 38.9562 23.6493 38.9562 23.8663C38.9562 30.4851 33.7395 38.1115 24.2048 38.1115C21.2673 38.1115 18.5386 37.2899 16.2432 35.8639C16.6605 35.9104 17.0618 35.9259 17.4952 35.9259C19.9189 35.9259 22.1502 35.1354 23.9319 33.7868C21.6526 33.7403 19.7424 32.2987 19.0843 30.3146C19.4053 30.3611 19.7263 30.3921 20.0635 30.3921C20.5289 30.3921 20.9945 30.3301 21.4278 30.2216C19.0522 29.7566 17.2704 27.7415 17.2704 25.3079V25.2459C17.9606 25.6179 18.7633 25.8504 19.6139 25.8814C18.2174 24.9823 17.3025 23.4478 17.3025 21.7116C17.3025 20.7816 17.5593 19.9291 18.0088 19.185C20.561 22.2232 24.3974 24.2073 28.6992 24.4243C28.6189 24.0523 28.5708 23.6648 28.5708 23.2773C28.5708 20.5181 30.8822 18.2705 33.7554 18.2705C35.2482 18.2705 36.5966 18.875 37.5436 19.8516C38.7154 19.6346 39.839 19.216 40.8342 18.6425C40.4489 19.8051 39.6303 20.7817 38.5549 21.4017C39.5982 21.2932 40.6095 21.0141 41.5405 20.6266C40.8343 21.6187 39.9514 22.5022 38.9402 23.2152Z" fill="#999999"/>
</g>
<defs>
<clipPath id="clip0">
<rect width="25.2973" height="21.0811" fill="white" transform="translate(16.2432 18.2705)"/>
</clipPath>
</defs>
</svg>
