<svg width="10" height="17" viewBox="0 0 10 17" fill="none" xmlns="http://www.w3.org/2000/svg">
<path d="M0.220023 0.207525C0.347012 0.087564 0.515368 0.0146262 0.694476 0.00197401C0.873586 -0.0106782 1.05155 0.0377953 1.19602 0.138581L1.28002 0.207525L9.53002 7.99919C9.65704 8.11913 9.73427 8.27813 9.74767 8.44728C9.76106 8.61644 9.70974 8.78453 9.60302 8.92097L9.53002 9.0003L1.28002 16.792C1.14602 16.9175 0.966815 16.9908 0.778163 16.997C0.589512 17.0033 0.405293 16.9422 0.262273 16.8258C0.119252 16.7095 0.0279503 16.5464 0.00658703 16.3693C-0.0147753 16.1922 0.0353727 16.0139 0.147023 15.8702L0.220023 15.7909L7.94002 8.49975L0.220023 1.20864C0.0795727 1.07582 0.000683784 0.89579 0.000683784 0.708081C0.000683784 0.520372 0.0795727 0.340338 0.220023 0.207525Z" fill="white" fill-opacity="0.95"/>
</svg>
