<svg width="19" height="21" viewBox="0 0 19 21" fill="none" xmlns="http://www.w3.org/2000/svg">
<g clip-path="url(#clip0)">
<path d="M9.5041 5.95077C6.94874 5.95077 4.88758 7.97972 4.88758 10.4952C4.88758 13.0106 6.94874 15.0395 9.5041 15.0395C12.0595 15.0395 14.1206 13.0106 14.1206 10.4952C14.1206 7.97972 12.0595 5.95077 9.5041 5.95077ZM9.5041 13.4496C7.85276 13.4496 6.50276 12.1246 6.50276 10.4952C6.50276 8.86566 7.84874 7.54071 9.5041 7.54071C11.1595 7.54071 12.5054 8.86566 12.5054 10.4952C12.5054 12.1246 11.1554 13.4496 9.5041 13.4496V13.4496ZM15.3862 5.76488C15.3862 6.35419 14.9041 6.82484 14.3095 6.82484C13.7108 6.82484 13.2327 6.35023 13.2327 5.76488C13.2327 5.17953 13.7148 4.70492 14.3095 4.70492C14.9041 4.70492 15.3862 5.17953 15.3862 5.76488ZM18.4438 6.84066C18.3755 5.42079 18.0461 4.16307 16.9894 3.12684C15.9367 2.09061 14.659 1.7663 13.2166 1.6951C11.73 1.61205 7.27419 1.61205 5.78758 1.6951C4.34919 1.76234 3.07151 2.08666 2.01482 3.12289C0.95812 4.15912 0.632673 5.41683 0.560352 6.83671C0.475977 8.30008 0.475977 12.6863 0.560352 14.1496C0.628655 15.5695 0.95812 16.8272 2.01482 17.8635C3.07151 18.8997 4.34517 19.224 5.78758 19.2952C7.27419 19.3783 11.73 19.3783 13.2166 19.2952C14.659 19.228 15.9367 18.9036 16.9894 17.8635C18.042 16.8272 18.3715 15.5695 18.4438 14.1496C18.5282 12.6863 18.5282 8.30404 18.4438 6.84066V6.84066ZM16.5233 15.7198C16.2099 16.495 15.6032 17.0922 14.8117 17.4047C13.6264 17.8674 10.8139 17.7606 9.5041 17.7606C8.19428 17.7606 5.37776 17.8635 4.19651 17.4047C3.40901 17.0962 2.80232 16.499 2.48491 15.7198C2.01482 14.5531 2.1233 11.7845 2.1233 10.4952C2.1233 9.2058 2.01883 6.43329 2.48491 5.2705C2.7983 4.4953 3.40499 3.89808 4.19651 3.58563C5.38178 3.12289 8.19428 3.22967 9.5041 3.22967C10.8139 3.22967 13.6304 3.12684 14.8117 3.58563C15.5992 3.89413 16.2059 4.49134 16.5233 5.2705C16.9934 6.43724 16.8849 9.2058 16.8849 10.4952C16.8849 11.7845 16.9934 14.557 16.5233 15.7198Z" fill="#999999"/>
</g>
<defs>
<clipPath id="clip0">
<rect width="18" height="20.25" fill="white" transform="translate(0.5 0.375)"/>
</clipPath>
</defs>
</svg>
