<svg width="30" height="30" viewBox="0 0 30 30" fill="none" xmlns="http://www.w3.org/2000/svg">
<g clip-path="url(#clip0)">
<path d="M29.5301 14.1126C29.4998 14.0923 29.4686 14.0736 29.4364 14.0566L27.3075 12.9102L15.5015 19.1609C15.1878 19.327 14.8123 19.327 14.4986 19.1609L2.69261 12.9102L0.563646 14.0566C0.0462217 14.3312 -0.150653 14.9733 0.124005 15.4907C0.141081 15.5229 0.159789 15.5542 0.180066 15.5844L15 23.4305L29.82 15.5844C30.1464 15.0979 30.0166 14.439 29.5301 14.1126Z" fill="white" fill-opacity="0.6"/>
<path d="M29.8705 20.9202C29.7712 20.7363 29.6204 20.5854 29.4366 20.4863L27.3077 19.3398L15.5016 25.5906C15.1879 25.7567 14.8124 25.7567 14.4987 25.5906L2.69266 19.3398L0.563696 20.4863C0.0429448 20.7673 -0.151293 21.4173 0.129768 21.938C0.229022 22.1219 0.379879 22.2728 0.563696 22.3719L14.4923 29.872C14.8093 30.0427 15.1909 30.0427 15.508 29.872L29.4366 22.3719C29.9572 22.0909 30.1515 21.4409 29.8705 20.9202Z" fill="white" fill-opacity="0.6"/>
<path d="M29.5301 7.68605C29.4998 7.66577 29.4686 7.64707 29.4364 7.62999L15.5079 0.129975C15.1909 -0.0407209 14.8093 -0.0407209 14.4922 0.129975L0.563646 7.62999C0.0462217 7.90465 -0.150653 8.54675 0.124005 9.06418C0.141081 9.09632 0.159789 9.12758 0.180066 9.15784L15 17.0039L29.82 9.15784C30.1464 8.67137 30.0166 8.01244 29.5301 7.68605Z" fill="white" fill-opacity="0.6"/>
</g>
<defs>
<clipPath id="clip0">
<rect width="30" height="30" fill="white"/>
</clipPath>
</defs>
</svg>
