<svg width="30" height="30" viewBox="0 0 30 30" fill="none" xmlns="http://www.w3.org/2000/svg">
<g clip-path="url(#clip0)">
<path d="M23.4375 0C19.8188 0 16.875 2.94375 16.875 6.5625C16.875 9.93 22.14 15.8944 22.74 16.5637C22.9181 16.7606 23.1712 16.875 23.4375 16.875C23.7038 16.875 23.9569 16.7606 24.135 16.5637C24.735 15.8944 30 9.93 30 6.5625C30 2.94375 27.0562 0 23.4375 0ZM23.4375 9.375C21.885 9.375 20.625 8.115 20.625 6.5625C20.625 5.01 21.885 3.75 23.4375 3.75C24.99 3.75 26.25 5.01 26.25 6.5625C26.25 8.115 24.99 9.375 23.4375 9.375Z" fill="white" fill-opacity="0.6"/>
<path d="M0.58875 11.0138C0.234375 11.1563 0 11.5013 0 11.8856V29.0625C0 29.3738 0.155625 29.6644 0.4125 29.8387C0.57 29.9437 0.751875 30 0.9375 30C1.05562 30 1.17375 29.9775 1.28625 29.9325L9.375 26.6962V7.5L0.58875 11.0138Z" fill="white" fill-opacity="0.6"/>
<path d="M25.53 17.8171C24.9975 18.4096 24.2344 18.7509 23.4375 18.7509C22.6406 18.7509 21.8775 18.4096 21.345 17.8171C21.1537 17.6052 20.9081 17.3259 20.625 16.994V30.0009L29.4113 26.4871C29.7675 26.3465 30 25.9996 30 25.6171V11.834C28.4644 14.4346 26.4113 16.8346 25.53 17.8171Z" fill="white" fill-opacity="0.6"/>
<path d="M15.5906 9.23625L11.25 7.5V26.6963L18.75 29.6963V14.64C17.5519 13.0256 16.3012 11.0813 15.5906 9.23625Z" fill="white" fill-opacity="0.6"/>
</g>
<defs>
<clipPath id="clip0">
<rect width="30" height="30" fill="white"/>
</clipPath>
</defs>
</svg>
