<svg width="25" height="25" viewBox="0 0 25 25" fill="none" xmlns="http://www.w3.org/2000/svg">
<g opacity="0.7">
<path d="M10.6248 3.75C11.9315 3.74978 13.2112 4.12193 14.3139 4.82286C15.4167 5.52379 16.2968 6.52446 16.8513 7.70765C17.4058 8.89084 17.6116 10.2075 17.4446 11.5035C17.2777 12.7995 16.7448 14.021 15.9086 15.025L21.0673 20.1825C21.178 20.2927 21.2435 20.4405 21.2507 20.5965C21.2579 20.7526 21.2064 20.9057 21.1063 21.0257C21.0063 21.1457 20.8649 21.2239 20.71 21.2448C20.5552 21.2657 20.3981 21.2279 20.2698 21.1388L20.1823 21.0675L15.0248 15.9088C14.1763 16.6151 13.1702 17.1067 12.0915 17.342C11.0128 17.5773 9.89336 17.5494 8.82776 17.2606C7.76217 16.9718 6.78181 16.4306 5.96959 15.6828C5.15737 14.935 4.53719 14.0026 4.1615 12.9644C3.78582 11.9263 3.66568 10.8129 3.81124 9.71854C3.95681 8.62414 4.3638 7.58089 4.99779 6.67704C5.63179 5.77318 6.47413 5.03531 7.45358 4.52582C8.43303 4.01634 9.52078 3.75023 10.6248 3.75ZM10.6248 5C9.13297 5 7.70223 5.59263 6.64734 6.64752C5.59245 7.70242 4.99981 9.13316 4.99981 10.625C4.99981 12.1168 5.59245 13.5476 6.64734 14.6025C7.70223 15.6574 9.13297 16.25 10.6248 16.25C12.1167 16.25 13.5474 15.6574 14.6023 14.6025C15.6572 13.5476 16.2498 12.1168 16.2498 10.625C16.2498 9.13316 15.6572 7.70242 14.6023 6.64752C13.5474 5.59263 12.1167 5 10.6248 5Z" fill="white" fill-opacity="0.95"/>
</g>
</svg>
