<svg width="30" height="30" viewBox="0 0 30 30" fill="none" xmlns="http://www.w3.org/2000/svg">
<path d="M15 16.7578C15.4854 16.7578 15.8789 16.3643 15.8789 15.8789C15.8789 15.3935 15.4854 15 15 15C14.5146 15 14.1211 15.3935 14.1211 15.8789C14.1211 16.3643 14.5146 16.7578 15 16.7578Z" fill="white" fill-opacity="0.6"/>
<path d="M15 0C6.74074 0 0 6.74115 0 15C0 23.2594 6.74115 30 15 30C23.2594 30 30 23.2588 30 15C30 6.74074 23.2588 0 15 0ZM15 3.57422C20.7025 3.57422 25.4425 7.77352 26.2905 13.2422H23.2426C21.31 13.2422 19.4739 12.4667 18.2051 11.1146C16.4707 9.26619 13.5295 9.26561 11.7949 11.1145C10.5261 12.4667 8.68998 13.2422 6.75738 13.2422H3.70945C4.55748 7.77352 9.29748 3.57422 15 3.57422ZM15 18.5156C13.5462 18.5156 12.3633 17.3329 12.3633 15.8789C12.3633 14.425 13.5462 13.2422 15 13.2422C16.4539 13.2422 17.6367 14.425 17.6367 15.8789C17.6367 17.3329 16.4539 18.5156 15 18.5156ZM4.36055 19.1658C5.3666 18.7712 6.09305 18.5156 7.08984 18.5156C10.2942 18.5156 12.7863 21.3711 12.3036 24.5795H12.3015C12.2298 25.0706 12.0887 25.5464 11.8852 25.9942C8.4423 25.0175 5.65611 22.4633 4.36055 19.1658ZM18.1155 25.994C17.9064 25.5343 17.7684 25.0586 17.6985 24.5795H17.6964C17.134 20.8409 20.5852 17.7561 24.1625 18.6653C24.5396 18.7611 25.0115 18.9196 25.6394 19.1659C24.3439 22.463 21.558 25.0171 18.1155 25.994Z" fill="white" fill-opacity="0.6"/>
</svg>
