<svg width="21" height="18" viewBox="0 0 21 18" fill="none" xmlns="http://www.w3.org/2000/svg">
<g clip-path="url(#clip0)">
<path d="M18.5435 4.58317C18.5564 4.75687 18.5564 4.93061 18.5564 5.10432C18.5564 10.4025 14.3805 16.5074 6.74812 16.5074C4.39674 16.5074 2.21242 15.8497 0.375 14.7082C0.709087 14.7454 1.03028 14.7578 1.37722 14.7578C3.31739 14.7578 5.10343 14.125 6.52968 13.0455C4.70512 13.0083 3.17608 11.8543 2.64926 10.2661C2.90626 10.3033 3.16322 10.3281 3.43308 10.3281C3.80569 10.3281 4.17834 10.2785 4.52524 10.1916C2.62359 9.81937 1.1973 8.20633 1.1973 6.25827V6.20865C1.74979 6.50645 2.3923 6.69257 3.07324 6.71735C1.95538 5.99767 1.22301 4.76928 1.22301 3.37957C1.22301 2.6351 1.42856 1.95265 1.78835 1.35706C3.83136 3.78904 6.90229 5.37725 10.3458 5.55099C10.2816 5.2532 10.243 4.94303 10.243 4.63282C10.243 2.42415 12.0933 0.625 14.3932 0.625C15.5882 0.625 16.6675 1.10891 17.4256 1.89062C18.3636 1.71692 19.263 1.38188 20.0597 0.922796C19.7512 1.85342 19.096 2.63513 18.2351 3.13142C19.0703 3.04461 19.8798 2.82121 20.625 2.51104C20.0597 3.30513 19.353 4.01236 18.5435 4.58317V4.58317Z" fill="#999999"/>
</g>
<defs>
<clipPath id="clip0">
<rect width="20.25" height="16.875" fill="white" transform="translate(0.375 0.625)"/>
</clipPath>
</defs>
</svg>
