<svg width="57" height="57" viewBox="0 0 57 57" fill="none" xmlns="http://www.w3.org/2000/svg">
<g clip-path="url(#clip0)">
<path d="M28.1134 22.8317C24.9211 22.8317 22.3462 25.3664 22.3462 28.5088C22.3462 31.6512 24.9211 34.1858 28.1134 34.1858C31.3056 34.1858 33.8805 31.6512 33.8805 28.5088C33.8805 25.3664 31.3056 22.8317 28.1134 22.8317ZM28.1134 32.1996C26.0504 32.1996 24.3639 30.5444 24.3639 28.5088C24.3639 26.4731 26.0454 24.8179 28.1134 24.8179C30.1813 24.8179 31.8628 26.4731 31.8628 28.5088C31.8628 30.5444 30.1763 32.1996 28.1134 32.1996V32.1996ZM35.4616 22.5995C35.4616 23.3357 34.8593 23.9236 34.1164 23.9236C33.3686 23.9236 32.7713 23.3307 32.7713 22.5995C32.7713 21.8682 33.3736 21.2753 34.1164 21.2753C34.8593 21.2753 35.4616 21.8682 35.4616 22.5995ZM39.2813 23.9434C39.196 22.1696 38.7844 20.5984 37.4643 19.3039C36.1493 18.0094 34.5531 17.6043 32.7512 17.5153C30.8941 17.4116 25.3276 17.4116 23.4705 17.5153C21.6736 17.5993 20.0774 18.0045 18.7574 19.299C17.4373 20.5935 17.0307 22.1647 16.9404 23.9385C16.835 25.7666 16.835 31.246 16.9404 33.0741C17.0257 34.8479 17.4373 36.4191 18.7574 37.7136C20.0774 39.0081 21.6686 39.4133 23.4705 39.5022C25.3276 39.606 30.8941 39.606 32.7512 39.5022C34.5531 39.4182 36.1493 39.0131 37.4643 37.7136C38.7794 36.4191 39.191 34.8479 39.2813 33.0741C39.3867 31.246 39.3867 25.7715 39.2813 23.9434V23.9434ZM36.8821 35.0357C36.4906 36.0041 35.7327 36.7502 34.7439 37.1405C33.2632 37.7186 29.7497 37.5852 28.1134 37.5852C26.4771 37.5852 22.9585 37.7136 21.4829 37.1405C20.4991 36.7551 19.7412 36.009 19.3446 35.0357C18.7574 33.5781 18.8929 30.1195 18.8929 28.5088C18.8929 26.898 18.7624 23.4345 19.3446 21.9819C19.7361 21.0135 20.4941 20.2674 21.4829 19.8771C22.9635 19.299 26.4771 19.4324 28.1134 19.4324C29.7497 19.4324 33.2682 19.3039 34.7439 19.8771C35.7276 20.2624 36.4856 21.0085 36.8821 21.9819C37.4693 23.4394 37.3338 26.898 37.3338 28.5088C37.3338 30.1195 37.4693 33.5831 36.8821 35.0357Z" fill="#999999"/>
</g>
<defs>
<clipPath id="clip0">
<rect width="22.4865" height="25.2973" fill="white" transform="translate(16.865 15.8652)"/>
</clipPath>
</defs>
</svg>
