<svg width="50" height="50" viewBox="0 0 50 50" fill="none" xmlns="http://www.w3.org/2000/svg">
<g opacity="0.7">
<path d="M21.2499 7.5C23.8632 7.49955 26.4226 8.24386 28.6281 9.64572C30.8336 11.0476 32.5939 13.0489 33.7029 15.4153C34.8118 17.7817 35.2234 20.4151 34.8895 23.007C34.5556 25.5989 33.4899 28.042 31.8174 30.05L42.1349 40.365C42.3563 40.5855 42.4872 40.8809 42.5016 41.1931C42.5161 41.5052 42.4131 41.8115 42.2129 42.0515C42.0128 42.2914 41.73 42.4478 41.4203 42.4896C41.1106 42.5314 40.7965 42.4558 40.5399 42.2775L40.3649 42.135L30.0499 31.8175C28.3529 33.2302 26.3406 34.2135 24.1833 34.6841C22.0259 35.1547 19.787 35.0988 17.6558 34.5212C15.5246 33.9436 13.5639 32.8612 11.9394 31.3656C10.315 29.87 9.07462 28.0052 8.32325 25.9289C7.57188 23.8526 7.3316 21.6259 7.62273 19.4371C7.91386 17.2483 8.72784 15.1618 9.99583 13.3541C11.2638 11.5464 12.9485 10.0706 14.9074 9.05164C16.8663 8.03267 19.0418 7.50045 21.2499 7.5ZM21.2499 10C18.2662 10 15.4047 11.1853 13.2949 13.295C11.1851 15.4048 9.99987 18.2663 9.99987 21.25C9.99987 24.2337 11.1851 27.0952 13.2949 29.205C15.4047 31.3147 18.2662 32.5 21.2499 32.5C24.2336 32.5 27.095 31.3147 29.2048 29.205C31.3146 27.0952 32.4999 24.2337 32.4999 21.25C32.4999 18.2663 31.3146 15.4048 29.2048 13.295C27.095 11.1853 24.2336 10 21.2499 10Z" fill="white" fill-opacity="0.95"/>
</g>
</svg>
