<svg width="52" height="52" viewBox="0 0 52 52" fill="none" xmlns="http://www.w3.org/2000/svg">
<path d="M38.7501 32.3743C38.2536 32.3753 37.7724 32.2024 37.3901 31.8856L26.0001 22.3656L14.5889 31.5456C14.3715 31.7221 14.1214 31.8539 13.8529 31.9334C13.5844 32.013 13.3029 32.0387 13.0245 32.0091C12.746 31.9794 12.4762 31.8951 12.2305 31.7608C11.9847 31.6266 11.768 31.4451 11.5926 31.2268C11.4161 31.0094 11.2843 30.7593 11.2047 30.4909C11.1252 30.2224 11.0995 29.9409 11.1291 29.6624C11.1587 29.384 11.2431 29.1142 11.3773 28.8684C11.5116 28.6227 11.6931 28.4059 11.9114 28.2306L24.6614 17.9668C25.0416 17.6543 25.5185 17.4834 26.0107 17.4834C26.5029 17.4834 26.9799 17.6543 27.3601 17.9668L40.1101 28.5918C40.3253 28.7702 40.5032 28.9893 40.6335 29.2365C40.7639 29.4838 40.8442 29.7543 40.8699 30.0326C40.8955 30.3109 40.866 30.5916 40.7831 30.8585C40.7001 31.1254 40.5653 31.3733 40.3864 31.5881C40.1886 31.8318 39.9393 32.0288 39.6564 32.1647C39.3735 32.3007 39.064 32.3722 38.7501 32.3743Z" fill="#2B2B2B"/>
</svg>
